<?xml version="1.0" encoding="UTF-8" standalone="no"?>
<!DOCTYPE svg PUBLIC "-//W3C//DTD SVG 1.1//EN"
 "http://www.w3.org/Graphics/SVG/1.1/DTD/svg11.dtd">
<!-- Generated by graphviz version 2.43.0 (0)
 -->
<!-- Title: handfab_sequence Pages: 1 -->
<svg width="724pt" height="629pt"
 viewBox="0.00 0.00 723.68 628.68" xmlns="http://www.w3.org/2000/svg" xmlns:xlink="http://www.w3.org/1999/xlink">
<g id="graph0" class="graph" transform="scale(1 1) rotate(0) translate(15.84 612.84)">
<title>handfab_sequence</title>
<polygon fill="white" stroke="transparent" points="-15.84,15.84 -15.84,-612.84 707.84,-612.84 707.84,15.84 -15.84,15.84"/>
<text text-anchor="middle" x="346" y="-575.4" font-family="DejaVu Sans" font-size="22.00">Sequência perfil–IA–OpenSCAD–exportação</text>
<!-- input -->
<g id="node1" class="node">
<title>input</title>
<path fill="#dff3ef" stroke="#475569" stroke-width="1.4" d="M482.33,-565C482.33,-565 23.67,-565 23.67,-565 17.83,-565 12,-559.17 12,-553.33 12,-553.33 12,-541.67 12,-541.67 12,-535.83 17.83,-530 23.67,-530 23.67,-530 482.33,-530 482.33,-530 488.17,-530 494,-535.83 494,-541.67 494,-541.67 494,-553.33 494,-553.33 494,-559.17 488.17,-565 482.33,-565"/>
<text text-anchor="middle" x="253" y="-545.1" font-family="DejaVu Sans" font-size="10.50">1 · NAVEGADOR — Perfil ou descrição, modelo seleccionado e medidas disponíveis</text>
</g>
<!-- mapping -->
<g id="node2" class="node">
<title>mapping</title>
<path fill="#fae7dc" stroke="#475569" stroke-width="1.4" d="M482.33,-513C482.33,-513 23.67,-513 23.67,-513 17.83,-513 12,-507.17 12,-501.33 12,-501.33 12,-489.67 12,-489.67 12,-483.83 17.83,-478 23.67,-478 23.67,-478 482.33,-478 482.33,-478 488.17,-478 494,-483.83 494,-489.67 494,-489.67 494,-501.33 494,-501.33 494,-507.17 488.17,-513 482.33,-513"/>
<text text-anchor="middle" x="253" y="-493.1" font-family="DejaVu Sans" font-size="10.50">2 · SERVIDOR — Correspondência determinística com a referência antropométrica</text>
</g>
<!-- input&#45;&gt;mapping -->
<g id="edge1" class="edge">
<title>input&#45;&gt;mapping</title>
<path fill="none" stroke="#475569" stroke-width="1.4" d="M253,-529.9C253,-529.9 253,-519.89 253,-519.89"/>
<polygon fill="#475569" stroke="#475569" stroke-width="1.4" points="255.38,-519.89 253,-513.09 250.62,-519.89 255.38,-519.89"/>
</g>
<!-- request -->
<g id="node3" class="node">
<title>request</title>
<path fill="#fae7dc" stroke="#475569" stroke-width="1.4" d="M482.33,-461C482.33,-461 23.67,-461 23.67,-461 17.83,-461 12,-455.17 12,-449.33 12,-449.33 12,-437.67 12,-437.67 12,-431.83 17.83,-426 23.67,-426 23.67,-426 482.33,-426 482.33,-426 488.17,-426 494,-431.83 494,-437.67 494,-437.67 494,-449.33 494,-449.33 494,-455.17 488.17,-461 482.33,-461"/>
<text text-anchor="middle" x="253" y="-441.1" font-family="DejaVu Sans" font-size="10.50">3 · SERVIDOR — Construção do pedido: descrição, esquema activo, referência e limites</text>
</g>
<!-- mapping&#45;&gt;request -->
<g id="edge2" class="edge">
<title>mapping&#45;&gt;request</title>
<path fill="none" stroke="#475569" stroke-width="1.4" d="M253,-477.9C253,-477.9 253,-467.89 253,-467.89"/>
<polygon fill="#475569" stroke="#475569" stroke-width="1.4" points="255.38,-467.89 253,-461.09 250.62,-467.89 255.38,-467.89"/>
</g>
<!-- infer -->
<g id="node4" class="node">
<title>infer</title>
<path fill="#eee7f5" stroke="#475569" stroke-width="1.4" d="M482.33,-409C482.33,-409 23.67,-409 23.67,-409 17.83,-409 12,-403.17 12,-397.33 12,-397.33 12,-385.67 12,-385.67 12,-379.83 17.83,-374 23.67,-374 23.67,-374 482.33,-374 482.33,-374 488.17,-374 494,-379.83 494,-385.67 494,-385.67 494,-397.33 494,-397.33 494,-403.17 488.17,-409 482.33,-409"/>
<text text-anchor="middle" x="253" y="-389.1" font-family="DejaVu Sans" font-size="10.50">4 · SERVIÇO EXTERNO DE IA — Inferência probabilística de valores iniciais</text>
</g>
<!-- request&#45;&gt;infer -->
<g id="edge3" class="edge">
<title>request&#45;&gt;infer</title>
<path fill="none" stroke="#475569" stroke-width="1.4" d="M253,-425.9C253,-425.9 253,-415.89 253,-415.89"/>
<polygon fill="#475569" stroke="#475569" stroke-width="1.4" points="255.38,-415.89 253,-409.09 250.62,-415.89 255.38,-415.89"/>
</g>
<!-- json -->
<g id="node5" class="node">
<title>json</title>
<path fill="#eee7f5" stroke="#475569" stroke-width="1.4" d="M482.33,-357C482.33,-357 23.67,-357 23.67,-357 17.83,-357 12,-351.17 12,-345.33 12,-345.33 12,-333.67 12,-333.67 12,-327.83 17.83,-322 23.67,-322 23.67,-322 482.33,-322 482.33,-322 488.17,-322 494,-327.83 494,-333.67 494,-333.67 494,-345.33 494,-345.33 494,-351.17 488.17,-357 482.33,-357"/>
<text text-anchor="middle" x="253" y="-337.1" font-family="DejaVu Sans" font-size="10.50">5 · SERVIÇO EXTERNO DE IA — Resposta estruturada em pares parâmetro–valor</text>
</g>
<!-- infer&#45;&gt;json -->
<g id="edge4" class="edge">
<title>infer&#45;&gt;json</title>
<path fill="none" stroke="#475569" stroke-width="1.4" d="M253,-373.9C253,-373.9 253,-363.89 253,-363.89"/>
<polygon fill="#475569" stroke="#475569" stroke-width="1.4" points="255.38,-363.89 253,-357.09 250.62,-363.89 255.38,-363.89"/>
</g>
<!-- validate -->
<g id="node6" class="node">
<title>validate</title>
<path fill="#fae7dc" stroke="#475569" stroke-width="1.4" d="M494.33,-304.5C494.33,-304.5 11.67,-304.5 11.67,-304.5 5.83,-304.5 0,-298.67 0,-292.83 0,-292.83 0,-281.17 0,-281.17 0,-275.33 5.83,-269.5 11.67,-269.5 11.67,-269.5 494.33,-269.5 494.33,-269.5 500.17,-269.5 506,-275.33 506,-281.17 506,-281.17 506,-292.83 506,-292.83 506,-298.67 500.17,-304.5 494.33,-304.5"/>
<text text-anchor="middle" x="253" y="-284.6" font-family="DejaVu Sans" font-size="10.50">6 · SERVIDOR — Validação estrutural, filtragem de chaves e exclusão de campos protegidos</text>
</g>
<!-- json&#45;&gt;validate -->
<g id="edge5" class="edge">
<title>json&#45;&gt;validate</title>
<path fill="none" stroke="#475569" stroke-width="1.4" d="M253,-321.73C253,-321.73 253,-311.56 253,-311.56"/>
<polygon fill="#475569" stroke="#475569" stroke-width="1.4" points="255.38,-311.56 253,-304.76 250.62,-311.56 255.38,-311.56"/>
</g>
<!-- confirm -->
<g id="node7" class="node">
<title>confirm</title>
<path fill="#dff3ef" stroke="#475569" stroke-width="1.4" d="M482.33,-244C482.33,-244 23.67,-244 23.67,-244 17.83,-244 12,-238.17 12,-232.33 12,-232.33 12,-220.67 12,-220.67 12,-214.83 17.83,-209 23.67,-209 23.67,-209 482.33,-209 482.33,-209 488.17,-209 494,-214.83 494,-220.67 494,-220.67 494,-232.33 494,-232.33 494,-238.17 488.17,-244 482.33,-244"/>
<text text-anchor="middle" x="253" y="-224.1" font-family="DejaVu Sans" font-size="10.50">7 · NAVEGADOR — Revisão e confirmação humana antes de aplicar a configuração</text>
</g>
<!-- validate&#45;&gt;confirm -->
<g id="edge6" class="edge">
<title>validate&#45;&gt;confirm</title>
<path fill="none" stroke="#475569" stroke-width="1.4" d="M253,-269.18C253,-269.18 253,-251.21 253,-251.21"/>
<polygon fill="#475569" stroke="#475569" stroke-width="1.4" points="255.38,-251.21 253,-244.41 250.62,-251.21 255.38,-251.21"/>
<text text-anchor="middle" x="310.5" y="-254.2" font-family="DejaVu Sans" font-size="8.50"> apenas valores permitidos</text>
</g>
<!-- invalid -->
<g id="node12" class="node">
<title>invalid</title>
<polygon fill="#fff1f0" stroke="#b42318" stroke-width="1.4" points="686,-305 530,-305 530,-269 692,-269 692,-299 686,-305"/>
<polyline fill="none" stroke="#b42318" stroke-width="1.4" points="686,-305 686,-299 "/>
<polyline fill="none" stroke="#b42318" stroke-width="1.4" points="692,-299 686,-299 "/>
<text text-anchor="middle" x="611" y="-290.6" font-family="DejaVu Sans" font-size="10.50" fill="#7a271a">Resposta inválida:</text>
<text text-anchor="middle" x="611" y="-278.6" font-family="DejaVu Sans" font-size="10.50" fill="#7a271a">rejeitar e informar</text>
</g>
<!-- validate&#45;&gt;invalid -->
<g id="edge11" class="edge">
<title>validate&#45;&gt;invalid</title>
<path fill="none" stroke="#b42318" stroke-width="1.4" stroke-dasharray="5,2" d="M506.01,-287C506.01,-287 522.92,-287 522.92,-287"/>
<polygon fill="#b42318" stroke="#b42318" stroke-width="1.4" points="522.92,-289.38 529.72,-287 522.92,-284.62 522.92,-289.38"/>
</g>
<!-- worker -->
<g id="node8" class="node">
<title>worker</title>
<path fill="#deebf7" stroke="#475569" stroke-width="1.4" d="M482.33,-192C482.33,-192 23.67,-192 23.67,-192 17.83,-192 12,-186.17 12,-180.33 12,-180.33 12,-168.67 12,-168.67 12,-162.83 17.83,-157 23.67,-157 23.67,-157 482.33,-157 482.33,-157 488.17,-157 494,-162.83 494,-168.67 494,-168.67 494,-180.33 494,-180.33 494,-186.17 488.17,-192 482.33,-192"/>
<text text-anchor="middle" x="253" y="-172.1" font-family="DejaVu Sans" font-size="10.50">8 · NAVEGADOR — Web Worker recebe o script e os parâmetros confirmados</text>
</g>
<!-- confirm&#45;&gt;worker -->
<g id="edge7" class="edge">
<title>confirm&#45;&gt;worker</title>
<path fill="none" stroke="#475569" stroke-width="1.4" d="M253,-208.9C253,-208.9 253,-198.89 253,-198.89"/>
<polygon fill="#475569" stroke="#475569" stroke-width="1.4" points="255.38,-198.89 253,-192.09 250.62,-198.89 255.38,-198.89"/>
</g>
<!-- openscad -->
<g id="node9" class="node">
<title>openscad</title>
<path fill="#deebf7" stroke="#475569" stroke-width="1.4" d="M492.33,-139.5C492.33,-139.5 13.67,-139.5 13.67,-139.5 7.83,-139.5 2,-133.67 2,-127.83 2,-127.83 2,-116.17 2,-116.17 2,-110.33 7.83,-104.5 13.67,-104.5 13.67,-104.5 492.33,-104.5 492.33,-104.5 498.17,-104.5 504,-110.33 504,-116.17 504,-116.17 504,-127.83 504,-127.83 504,-133.67 498.17,-139.5 492.33,-139.5"/>
<text text-anchor="middle" x="253" y="-119.6" font-family="DejaVu Sans" font-size="10.50">9 · OPENSCAD/WASM — Aplicação determinística de regras, limites e relações geométricas</text>
</g>
<!-- worker&#45;&gt;openscad -->
<g id="edge8" class="edge">
<title>worker&#45;&gt;openscad</title>
<path fill="none" stroke="#475569" stroke-width="1.4" d="M253,-156.73C253,-156.73 253,-146.56 253,-146.56"/>
<polygon fill="#475569" stroke="#475569" stroke-width="1.4" points="255.38,-146.56 253,-139.76 250.62,-146.56 255.38,-146.56"/>
</g>
<!-- preview -->
<g id="node10" class="node">
<title>preview</title>
<path fill="#f7eedf" stroke="#475569" stroke-width="1.4" d="M482.33,-87C482.33,-87 23.67,-87 23.67,-87 17.83,-87 12,-81.17 12,-75.33 12,-75.33 12,-63.67 12,-63.67 12,-57.83 17.83,-52 23.67,-52 23.67,-52 482.33,-52 482.33,-52 488.17,-52 494,-57.83 494,-63.67 494,-63.67 494,-75.33 494,-75.33 494,-81.17 488.17,-87 482.33,-87"/>
<text text-anchor="middle" x="253" y="-67.1" font-family="DejaVu Sans" font-size="10.50">10 · NAVEGADOR — Pré&#45;visualização e inspecção da geometria gerada</text>
</g>
<!-- openscad&#45;&gt;preview -->
<g id="edge9" class="edge">
<title>openscad&#45;&gt;preview</title>
<path fill="none" stroke="#475569" stroke-width="1.4" d="M253,-104.23C253,-104.23 253,-94.06 253,-94.06"/>
<polygon fill="#475569" stroke="#475569" stroke-width="1.4" points="255.38,-94.06 253,-87.26 250.62,-94.06 255.38,-94.06"/>
</g>
<!-- render_error -->
<g id="node13" class="node">
<title>render_error</title>
<polygon fill="#fff1f0" stroke="#b42318" stroke-width="1.4" points="684,-140 528,-140 528,-104 690,-104 690,-134 684,-140"/>
<polyline fill="none" stroke="#b42318" stroke-width="1.4" points="684,-140 684,-134 "/>
<polyline fill="none" stroke="#b42318" stroke-width="1.4" points="690,-134 684,-134 "/>
<text text-anchor="middle" x="609" y="-125.6" font-family="DejaVu Sans" font-size="10.50" fill="#7a271a">Erro geométrico:</text>
<text text-anchor="middle" x="609" y="-113.6" font-family="DejaVu Sans" font-size="10.50" fill="#7a271a">rever a configuração</text>
</g>
<!-- openscad&#45;&gt;render_error -->
<g id="edge12" class="edge">
<title>openscad&#45;&gt;render_error</title>
<path fill="none" stroke="#b42318" stroke-width="1.4" stroke-dasharray="5,2" d="M504.11,-122C504.11,-122 520.99,-122 520.99,-122"/>
<polygon fill="#b42318" stroke="#b42318" stroke-width="1.4" points="520.99,-124.38 527.79,-122 520.99,-119.62 520.99,-124.38"/>
</g>
<!-- export -->
<g id="node11" class="node">
<title>export</title>
<path fill="#f7e4d7" stroke="#475569" stroke-width="1.4" d="M482.33,-35C482.33,-35 23.67,-35 23.67,-35 17.83,-35 12,-29.17 12,-23.33 12,-23.33 12,-11.67 12,-11.67 12,-5.83 17.83,0 23.67,0 23.67,0 482.33,0 482.33,0 488.17,0 494,-5.83 494,-11.67 494,-11.67 494,-23.33 494,-23.33 494,-29.17 488.17,-35 482.33,-35"/>
<text text-anchor="middle" x="253" y="-15.1" font-family="DejaVu Sans" font-size="10.50">11 · NAVEGADOR — Exportação em STL ou 3MF para preparação do fabrico</text>
</g>
<!-- preview&#45;&gt;export -->
<g id="edge10" class="edge">
<title>preview&#45;&gt;export</title>
<path fill="none" stroke="#475569" stroke-width="1.4" d="M253,-51.9C253,-51.9 253,-41.89 253,-41.89"/>
<polygon fill="#475569" stroke="#475569" stroke-width="1.4" points="255.38,-41.89 253,-35.09 250.62,-41.89 255.38,-41.89"/>
</g>
</g>
</svg>
